Coordinates
version=1
nRows=16
nColumns=22
inDegrees=yes

Units are S.I. units (second, meters, Newtons, ...)
If the header above contains a line with 'inDegrees', this indicates whether rotational values are in degrees (yes) or radians (no).

endheader
time	pelvis_tilt	pelvis_list	pelvis_rotation	pelvis_tx	pelvis_ty	pelvis_tz	hip_flexion_r	hip_adduction_r	hip_rotation_r	knee_angle_r	ankle_angle_r	subtalar_angle_r	hip_flexion_l	hip_adduction_l	hip_rotation_l	knee_angle_l	ankle_angle_l	subtalar_angle_l	lumbar_extension	lumbar_bending	lumbar_rotation
      1.98000000	      1.81466322	     -3.01084264	     -5.60267652	      1.11398747	      0.92636585	      0.14487809	     -3.54490816	      2.48393361	      2.97600469	     -6.56817599	      3.97348532	      1.09343985	     -3.19596651	     -4.65205617	    -12.42727163	    -10.88903748	      8.79748286	     -0.92492382	     -6.31449481	     -0.65284815	      2.20126276
      1.99000000	      1.81189144	     -3.01005467	     -5.59263012	      1.11405856	      0.92635673	      0.14490555	     -3.54814313	      2.48640416	      2.97780971	     -6.56784259	      3.97311967	      1.09330895	     -3.19876411	     -4.65432193	    -12.42801634	    -10.88414283	      8.79824345	     -0.92383880	     -6.32016790	     -0.65442708	      2.20184433
      2.00000000	      1.82678658	     -3.02476356	     -5.57955665	      1.11417217	      0.92637183	      0.14493524	     -3.58564475	      2.50368279	      2.98942701	     -6.54725304	      3.97755861	      1.09227075	     -3.23978681	     -4.66836054	    -12.41138527	    -10.84949994	      8.80425240	     -0.91080938	     -6.34053225	     -0.63776157	      2.18054411
      2.01000000	      1.82335176	     -3.02309322	     -5.57240160	      1.11423226	      0.92636137	      0.14495613	     -3.58715696	      2.50413760	      2.99036375	     -6.54602358	      3.97655629	      1.09215495	     -3.23989712	     -4.66872552	    -12.41201849	    -10.84718249	      8.80433841	     -0.90974243	     -6.34922635	     -0.63809400	      2.18425375
      2.02000000	      1.81898511	     -3.02155607	     -5.57163358	      1.11431348	      0.92634919	      0.14498873	     -3.58818044	      2.50446058	      2.99054268	     -6.54645927	      3.97650329	      1.09215525	     -3.24143780	     -4.66922966	    -12.41203109	    -10.84762677	      8.80432937	     -0.90967425	     -6.35115399	     -0.63783479	      2.18440382
      2.03000000	      1.83036436	     -3.03628115	     -5.56601014	      1.11441711	      0.92635993	      0.14503156	     -3.62320577	      2.52201511	      3.01771951	     -6.52097925	      3.98083634	      1.09165042	     -3.27961704	     -4.68367100	    -12.40606943	    -10.81136887	      8.80940785	     -0.89422506	     -6.37162274	     -0.62284165	      2.17796939
      2.04000000	      1.82585146	     -3.03454077	     -5.56545796	      1.11449948	      0.92634788	      0.14506769	     -3.62432865	      2.52233879	      3.01781391	     -6.52150910	      3.98070530	      1.09164640	     -3.28088968	     -4.68410581	    -12.40611721	    -10.81186355	      8.80938179	     -0.89415818	     -6.37372810	     -0.62259858	      2.17816690
      2.05000000	      1.82097427	     -3.03363451	     -5.56140783	      1.11456401	      0.92633621	      0.14511285	     -3.62512252	      2.52526694	      3.02005655	     -6.51918411	      3.98037266	      1.09158039	     -3.28167779	     -4.68672957	    -12.40806810	    -10.80710550	      8.80992291	     -0.89306859	     -6.38102478	     -0.62594274	      2.17912037
      2.06000000	      1.81622031	     -3.03181326	     -5.56110928	      1.11465093	      0.92632402	      0.14515221	     -3.62650519	      2.52577073	      3.02028818	     -6.51967405	      3.98034464	      1.09157748	     -3.28305622	     -4.68719750	    -12.40813758	    -10.80738925	      8.80993456	     -0.89299029	     -6.38287201	     -0.62551247	      2.17911150
      2.07000000	      1.80937811	     -3.03906525	     -5.56369870	      1.11477497	      0.92631126	      0.14521535	     -3.64160296	      2.53715727	      3.04670674	     -6.49485622	      3.98476650	      1.09039827	     -3.30310166	     -4.69594382	    -12.41734826	    -10.77215195	      8.81465943	     -0.88368328	     -6.37635711	     -0.61705101	      2.17241181
      2.08000000	      1.80439749	     -3.03696191	     -5.56360211	      1.11486470	      0.92629923	      0.14526056	     -3.64300097	      2.53785606	      3.04688430	     -6.49533872	      3.98469110	      1.09038877	     -3.30431617	     -4.69639858	    -12.41727214	    -10.77259579	      8.81462697	     -0.88359456	     -6.37853310	     -0.61672307	      2.17257179
      2.09000000	      1.79781757	     -3.03640097	     -5.56358623	      1.11494259	      0.92628760	      0.14533288	     -3.64434143	      2.54296055	      3.05012074	     -6.48979758	      3.98518643	      1.09018813	     -3.30565125	     -4.70073012	    -12.41797548	    -10.76658491	      8.81510826	     -0.88213800	     -6.38262759	     -0.62272816	      2.17408420
      2.10000000	      1.78505533	     -3.03889594	     -5.56933785	      1.11508874	      0.92626679	      0.14539666	     -3.65903740	      2.54863994	      3.07600742	     -6.45459190	      3.98818075	      1.08765854	     -3.32068098	     -4.70373757	    -12.42093681	    -10.73242289	      8.81729514	     -0.87039590	     -6.36565608	     -0.61690977	      2.18461316
      2.11000000	      1.77973609	     -3.03645407	     -5.56866750	      1.11518847	      0.92625419	      0.14544645	     -3.66050960	      2.54938241	      3.07633945	     -6.45530976	      3.98805602	      1.08763582	     -3.32233281	     -4.70431709	    -12.42094770	    -10.73297058	      8.81724002	     -0.87028260	     -6.36750365	     -0.61671765	      2.18486402
      2.12000000	      1.76687555	     -3.03263592	     -5.56831200	      1.11533046	      0.92623261	      0.14552133	     -3.67142887	      2.55060296	      3.09508648	     -6.42672466	      3.98810283	      1.08463120	     -3.33284897	     -4.70323548	    -12.42375899	    -10.70279207	      8.81689869	     -0.85747011	     -6.35160957	     -0.62502250	      2.20205472
      2.13000000	      1.76086794	     -3.03026520	     -5.56462957	      1.11543857	      0.92621822	      0.14558828	     -3.67386024	      2.55341623	      3.09768840	     -6.42617222	      3.98786908	      1.08429524	     -3.33549704	     -4.70584464	    -12.42451381	    -10.69983783	      8.81650188	     -0.85586172	     -6.35191849	     -0.63154025	      2.20459000
